<svg width="100%" viewBox="0 0 680 200" role="img" xmlns="http://www.w3.org/2000/svg" style="">
  <title style="fill:rgb(0, 0, 0);stroke:none;color:rgb(0, 0, 0);stroke-width:1px;stroke-linecap:butt;stroke-linejoin:miter;opacity:1;font-family:&quot;Anthropic Sans&quot;, -apple-system, BlinkMacSystemFont, &quot;Segoe UI&quot;, sans-serif;font-size:16px;font-weight:400;text-anchor:start;dominant-baseline:auto">VirtuCare logo</title>
  <desc style="fill:rgb(0, 0, 0);stroke:none;color:rgb(0, 0, 0);stroke-width:1px;stroke-linecap:butt;stroke-linejoin:miter;opacity:1;font-family:&quot;Anthropic Sans&quot;, -apple-system, BlinkMacSystemFont, &quot;Segoe UI&quot;, sans-serif;font-size:16px;font-weight:400;text-anchor:start;dominant-baseline:auto">VirtuCare logo with a teal shield containing a heart and pulse line, alongside the wordmark</desc>

  <defs>
    
  </defs>

  <g transform="translate(40, 20)" style="fill:rgb(0, 0, 0);stroke:none;color:rgb(0, 0, 0);stroke-width:1px;stroke-linecap:butt;stroke-linejoin:miter;opacity:1;font-family:&quot;Anthropic Sans&quot;, -apple-system, BlinkMacSystemFont, &quot;Segoe UI&quot;, sans-serif;font-size:16px;font-weight:400;text-anchor:start;dominant-baseline:auto">
    <path d="M60 0 C60 0 10 16 10 60 L10 108 C10 140 60 165 60 165 C60 165 110 140 110 108 L110 60 C110 16 60 0 60 0 Z" style="fill:rgb(13, 148, 136);stroke:none;color:rgb(0, 0, 0);stroke-width:1px;stroke-linecap:butt;stroke-linejoin:miter;opacity:1;font-family:&quot;Anthropic Sans&quot;, -apple-system, BlinkMacSystemFont, &quot;Segoe UI&quot;, sans-serif;font-size:16px;font-weight:400;text-anchor:start;dominant-baseline:auto"/>

    <path d="M60 118 C60 118 34 100 34 82 C34 72 42 64 52 64 C56.5 64 60 67 60 67 C60 67 63.5 64 68 64 C78 64 86 72 86 82 C86 100 60 118 60 118 Z" style="fill:rgb(255, 255, 255);stroke:none;color:rgb(0, 0, 0);stroke-width:1px;stroke-linecap:butt;stroke-linejoin:miter;opacity:1;font-family:&quot;Anthropic Sans&quot;, -apple-system, BlinkMacSystemFont, &quot;Segoe UI&quot;, sans-serif;font-size:16px;font-weight:400;text-anchor:start;dominant-baseline:auto"/>

    <polyline points="34,82 44,82 50,68 56,96 62,76 66,82 86,82" style="fill:none;stroke:rgb(255, 255, 255);color:rgb(0, 0, 0);stroke-width:3px;stroke-linecap:round;stroke-linejoin:round;opacity:1;font-family:&quot;Anthropic Sans&quot;, -apple-system, BlinkMacSystemFont, &quot;Segoe UI&quot;, sans-serif;font-size:16px;font-weight:400;text-anchor:start;dominant-baseline:auto"/>
  </g>

  <text x="174" y="120" style="fill:rgb(15, 23, 42);stroke:none;color:rgb(0, 0, 0);stroke-width:1px;stroke-linecap:butt;stroke-linejoin:miter;opacity:1;font-family:Georgia, &quot;Times New Roman&quot;, serif;font-size:52px;font-weight:700;text-anchor:start;dominant-baseline:auto">Virtu</text>
  <text x="306" y="120" style="fill:rgb(13, 148, 136);stroke:none;color:rgb(0, 0, 0);stroke-width:1px;stroke-linecap:butt;stroke-linejoin:miter;opacity:1;font-family:Georgia, &quot;Times New Roman&quot;, serif;font-size:52px;font-weight:400;text-anchor:start;dominant-baseline:auto">Care</text>

  <text x="175" y="148" style="fill:rgb(100, 116, 139);stroke:none;color:rgb(0, 0, 0);stroke-width:1px;stroke-linecap:butt;stroke-linejoin:miter;opacity:1;font-family:Arial, sans-serif;font-size:13px;font-weight:400;text-anchor:start;dominant-baseline:auto">YOU CALL, WE CARE</text>
</svg>